<svg version="1.1" xmlns="http://www.w3.org/2000/svg" xmlns:xlink="http://www.w3.org/1999/xlink" width="180px" height="146px" viewBox="0,0,256,256"><g fill="none" fill-rule="nonzero" stroke="none" stroke-width="1" stroke-linecap="butt" stroke-linejoin="miter" stroke-miterlimit="10" stroke-dasharray="" stroke-dashoffset="0" font-family="none" font-weight="none" font-size="none" text-anchor="none" style="mix-blend-mode: normal"><g transform="scale(2,2)"><path d="M110.51,17.49c11.35,11.35 -3.78,64.31 -26.48,87c-7.9543,8.16204 -18.86808,12.7653 -30.265,12.7653c-11.39692,0 -22.3107,-4.60326 -30.265,-12.7653c-8.14953,-7.95289 -12.74479,-18.85802 -12.74479,-30.245c0,-11.38698 4.59526,-22.29211 12.74479,-30.245c22.7,-22.73 75.66,-37.86 87.01,-26.51z" fill="#9b6c46"></path><path d="M22.09,105.91c-8.5242,-8.33466 -13.3293,-19.75324 -13.3293,-31.675c0,-11.92176 4.8051,-23.34034 13.3293,-31.675c10.74,-10.75 28.91,-20.66 48.6,-26.56c19.89,-5.91 35.31,-5.9 41.24,0v0c5.93,5.94 5.94,21.35 0,41.24c-5.83,19.76 -15.74,37.93 -26.49,48.67c-8.32504,8.542 -19.74722,13.35951 -31.675,13.35951c-11.92778,0 -23.34996,-4.81751 -31.675,-13.35951zM71.83,19.91c-18.83,5.56 -36.77,15.33 -46.92,25.47c-7.75668,7.59728 -12.12799,17.99753 -12.12799,28.855c0,10.85747 4.37131,21.25772 12.12799,28.855c7.5808,7.78719 17.98721,12.17975 28.855,12.17975c10.86779,0 21.2742,-4.39257 28.855,-12.17975c10.14,-10.15 19.91,-28.09 25.5,-46.92c5.33,-17.91 5.71,-32.54 1,-37.27v0c-6.63,-6.61 -28.31,-1.69 -37.29,0.98z" fill="#6b4b31"></path><path d="M46.42,81.58c-0.37555,-0.37514 -0.58657,-0.88418 -0.58657,-1.415c0,-0.53082 0.21102,-1.03986 0.58657,-1.415l51.33,-51.33c0.78148,-0.78148 2.04852,-0.78148 2.83,0c0.78148,0.78148 0.78148,2.04852 0,2.83l-51.33,51.33c-0.37514,0.37555 -0.88418,0.58657 -1.415,0.58657c-0.53082,0 -1.03986,-0.21102 -1.415,-0.58657z" fill="#6b4b31"></path><path d="M67.45,99.78c-0.4924,-0.98596 -0.09439,-2.18446 0.89,-2.68c15.16,-7.58 29,-44.64 29.18,-45c0.39764,-1.01515 1.53507,-1.52479 2.55735,-1.14586c1.02228,0.37892 1.55273,1.5068 1.19265,2.53586c-0.59,1.59 -14.57,38.92 -31.14,47.21c-0.47723,0.23438 -1.02815,0.26909 -1.53102,0.09646c-0.50288,-0.17263 -0.91632,-0.53839 -1.14898,-1.01646z" fill="#6b4b31"></path><path d="M24.51,83.36c-0.29,-1.07 -6.79,-26.58 27.49,-46.81c0.94134,-0.4515 2.0716,-0.10298 2.59521,0.80024c0.52361,0.90322 0.26438,2.05724 -0.59521,2.64976c-31.49,18.6 -25.88,41.36 -25.63,42.32c0.18079,1.02734 -0.45836,2.02111 -1.46816,2.28272c-1.00979,0.2616 -2.05107,-0.29682 -2.39184,-1.28272z" fill="#6b4b31"></path><path d="M47.84,59.15c-0.40901,-0.3391 -0.6663,-0.827 -0.71507,-1.35606c-0.04878,-0.52906 0.11496,-1.05578 0.45507,-1.46394c9.79,-11.75 25,-20.4 25.7,-20.77c0.96374,-0.55228 2.19272,-0.21874 2.745,0.745c0.55228,0.96374 0.21874,2.19272 -0.745,2.745c-0.15,0.09 -15.27,8.67 -24.58,19.84c-0.33997,0.42103 -0.83604,0.68632 -1.37497,0.73531c-0.53893,0.04899 -1.07471,-0.12249 -1.48503,-0.47531z" fill="#6b4b31"></path><path d="M35.22,102.11c-0.30211,-1.0602 0.31064,-2.16495 1.37,-2.47c17.89,-5.11 38.9,-31.17 39.11,-31.43c0.69036,-0.86433 1.95067,-1.00536 2.815,-0.315c0.86433,0.69036 1.00536,1.95067 0.315,2.815c-0.89,1.11 -22,27.31 -41.14,32.77c-1.0602,0.30211 -2.16495,-0.31064 -2.47,-1.37z" fill="#6b4b31"></path></g></g></svg>